<?xml version="1.0" encoding="UTF-8" standalone="no"?>
<svg xmlns="http://www.w3.org/2000/svg" height="700" width="700" version="1.1" viewBox="0 0 699.99997 700">
 <path d="m442.2 54.26c-0.64369-0.0828-1.3265 0.29902-2.1562 1.1621-2.3642 2.4592-7.8925 22.195-6.9238 24.719 0.84325 2.1975 2.9561 2.4788 4.1465 0.55273 0.45451-0.73541 2.3266-6.5164 4.1621-12.848 2.372-8.1819 2.925-11.925 1.9102-12.939-0.38056-0.38056-0.75246-0.59684-1.1387-0.64648zm-19.316 6.6172c-0.17991 0.005-0.37604 0.0272-0.58984 0.0684-1.7246 0.33212-3.0883 3.7466-5.4199 13.582-1.713 7.2259-2.7946 13.971-2.4043 14.988 0.97634 2.5443 3.1222 2.3176 4.5879-0.48438 1.6605-3.1745 5.5391-20.7 5.5391-25.027 0-2.2747-0.45349-3.1614-1.7129-3.127zm-18.324 9.3242c-0.48223 0.0254-0.97839 0.31238-1.5273 0.86133-1.7838 1.7838-6.7742 28.008-5.6699 29.795 1.2372 2.0018 4.353 1.291 5.0859-1.1601 2.4228-8.1022 4.8224-27.525 3.5566-28.791-0.49402-0.49403-0.96308-0.73047-1.4453-0.70508zm-52.643 11.83c-23.652 0-30.178 0.38112-31.648 1.8516-1.581 1.581-1.5157 4.658 0.44726 21 1.4472 12.048 1.8369 19.711 1.0508 20.666-0.68717 0.83492-4.461 1.9197-8.3867 2.4102-3.9258 0.49049-13.019 2.3475-20.205 4.127-7.1863 1.7795-13.406 2.8984-13.822 2.4863-0.41599-0.41212-3.7552-9.5531-7.4219-20.312-4.8719-14.296-7.2948-19.677-9-19.992-1.5263-0.282-2.334 0.40861-2.334 1.998 0 3.1509 13.267 43.23 15.059 45.492 0.76407 0.96464 2.3045 1.32 3.4883 0.80469 5.4174-2.3584 24.623-6.9945 35.188-8.4941 6.4335-0.91324 12.467-2.428 13.406-3.3672 1.388-1.388 1.2743-5.2923-0.60742-20.855-1.2733-10.531-1.8598-19.623-1.3027-20.203 0.5571-0.58027 6.3575-0.8796 12.891-0.66602l11.879 0.38867 0.36719 20.332c0.3464 19.137 0.52236 20.334 2.9668 20.334s2.6184-1.1968 2.9648-20.334l0.36719-20.332 11.334-0.33593c6.2333-0.18391 12.684-0.64533 14.334-1.0254 3.4536-0.79551 4.0011-3.9705 0.89063-5.1641-1.16-0.44513-15.517-0.80859-31.904-0.80859zm-124.49 27.029c-0.66702 0.0225-1.3839 0.3155-1.8965 0.82812-1.0995 1.0995-0.54442 3.4228 2.1152 8.8457 1.9841 4.0455 3.6074 8.1229 3.6074 9.0606 0 0.93763-2.8487 3.0879-6.332 4.7774-7.6981 3.7336-26.34 15.776-36.334 23.473-11.424 8.7982-26.666 23.366-26.666 25.486 0 5.0519 4.4803 2.9389 15.572-7.3438 17.11-15.862 50.452-38.843 56.307-38.811 1.3369 0.007 4.8299 5.2173 9.4531 14.098 8.4936 16.314 9.7408 13.218-10.309 25.613-16.542 10.227-21.175 14.351-19.025 16.941 0.90016 1.0846 2.3188 1.5516 3.1524 1.0371 0.83355-0.51453 7.215-4.8091 14.182-9.543 6.9667-4.7339 18.817-11.552 26.334-15.152 10.326-4.9454 13.666-7.1723 13.666-9.1094 0-3.0877-1.271-3.1834-7.5391-0.56445-2.6327 1.1-5.6104 2-6.6172 2-1.0424 0-7.2654-10.86-14.455-25.225-6.9443-13.874-13.3-25.642-14.123-26.15-0.30873-0.19081-0.69158-0.27523-1.0918-0.26172zm215.63 2.7051c-0.61001 0.0239-1.302 0.30388-2.2305 0.80078-3.1974 1.7112-3.8067 5.3691-1.3106 7.8652 4.6935 4.6935 10.819-1.2733 6.625-6.4531-1.2777-1.5779-2.0673-2.2528-3.084-2.2129zm-230.47 2.9316c-4.0978 0-6.4304 3.7368-4.0918 6.5547 0.96394 1.1615 2.8047 2.1133 4.0918 2.1133s3.1279-0.95181 4.0918-2.1133c2.3386-2.8179 0.006-6.5547-4.0918-6.5547zm-14.666 7.334c-1.4812 0-5.334 3.8528-5.334 5.334 0 0.62858 0.94331 2.0859 2.0957 3.2383s2.6097 2.0938 3.2383 2.0938c1.4812 0 5.332-3.8508 5.332-5.332s-3.8509-5.334-5.332-5.334zm214.64 10.223c-0.423-0.0105-0.75328 0.0208-0.97852 0.0976-2.9087 0.99184-1.8007 3.973 2 5.3809 2.0167 0.74701 8.4136 2.9746 14.215 4.9492 5.8013 1.9746 13.6 4.9861 17.332 6.6934 3.7321 1.7073 7.8358 3.1528 9.1191 3.2129 3.3151 0.1552 2.8914-3.4629-0.67969-5.8027-7.4278-4.8669-34.663-14.374-41.008-14.531zm73.15 3.1348c-0.98756 0.0138-4.9492 5.4993-8.8027 12.189-5.4599 9.4789-6.6702 12.568-5.4883 13.992 2.1357 2.5733 4.2851 0.47919 9.4394-9.1914 2.3352-4.3812 4.9856-8.2491 5.8887-8.5957 3.9162-1.5028 34.551 22.028 53.139 40.814 11.631 11.755 16.695 14.695 16.695 9.6934 0-2.7959-26.269-28.95-38-37.834-11.683-8.8479-30.794-21.097-32.871-21.068zm-319.32 13.525c-0.11268-0.0103-0.23066-0.009-0.35547 0.004-1.6641 0.17217-4.4548 2.4361-9.7461 7.4473-18.573 17.589-46.373 53.752-46.373 60.322 0 1.8032 5.0857 5.573 18 13.344 9.9 5.957 18 11.403 18 12.104 0 0.70038-3.2079 7.7148-7.1289 15.586-3.921 7.8711-8.8174 18.66-10.879 23.977-2.0615 5.3167-4.4023 9.6603-5.2031 9.6523-1.7771-0.0176-13.766-3.6075-15.381-4.6055-0.63961-0.39531-0.18395-3.7767 1.0117-7.5156 2.0722-6.4801 2.0572-6.884-0.31836-8.6211-1.3707-1.0022-6.3632-3.1106-11.096-4.6856-7.2636-2.4171-8.8855-2.5789-10.398-1.043-2.1421 2.1745-9.9414 29.372-9.9414 34.666 0 3.8081 0.56151 4.1131 12.666 6.8965 1.4667 0.33725 4.557 0.68247 6.8672 0.76757 3.9736 0.14632 4.2869-0.20494 5.8008-6.5156 0.88016-3.6689 2.0928-6.9746 2.6934-7.3457 0.60049-0.37113 5.9958 0.87589 11.99 2.7695 5.9945 1.8936 11.082 3.2486 11.307 3.0117 0.22447-0.23692 2.6441-6.4303 5.377-13.764 9.0993-24.417 22.315-48.47 36.799-66.973 7.0077-8.9526 8.0633-12.361 3.8281-12.361-2.5109 0-14.537 14.606-20.914 25.4-1.2775 2.1627-2.9213 3.9336-3.6543 3.9336-1.6148 0-32.76-18.509-32.76-19.469 0-1.0333 10.371-16.211 17.221-25.199 3.3529-4.4 12.62-14.738 20.592-22.973 9.6798-9.9996 14.234-15.646 13.715-17-0.42348-1.1036-0.92996-1.7383-1.7188-1.8106zm189.59 8.586c-96.307-1.0023-183.79 65.364-204.6 162.12-26.202 121.81 59.946 239.38 183.42 250.33 17.138 1.5198 18.323 1.5204 34.859 0.0566 91.327-8.0839 166.52-73.594 185.45-161.56 24.017-111.65-46.856-222.49-157.48-246.28-13.95-3.0008-27.886-4.5189-41.645-4.6621zm-2.7363 9.1973c21.652 0 27.344 0.451 39.174 3.0996 40.397 9.0448 71.47 26.035 100.25 54.812 28.778 28.778 45.768 59.851 54.812 100.25 2.6486 11.83 3.0996 17.522 3.0996 39.174s-0.451 27.344-3.0996 39.174c-9.0448 40.397-26.035 71.47-54.812 100.25-28.258 28.258-58.026 44.8-97.422 54.135-11.418 2.7054-18.303 3.4054-37.332 3.8008-31.751 0.65967-50.789-2.7111-78.814-13.955-51.637-20.717-94.097-65.414-112.94-118.89-8.1071-23.01-10.246-36.482-10.246-64.508 0-21.652 0.44905-27.344 3.0977-39.174 9.0448-40.397 26.035-71.47 54.812-100.25 28.778-28.778 59.851-45.768 100.25-54.812 11.83-2.6486 17.522-3.0996 39.174-3.0996zm154.24 14.635c-0.14068 0.0108-0.2613 0.0476-0.36133 0.10938-2.7525 1.7011-0.57311 4.9161 11.814 17.432 7.1634 7.2374 16.833 18.408 21.488 24.824 4.6555 6.4167 9.2522 11.668 10.215 11.668 0.96264 0 5.4922-2.4845 10.064-5.5215 6.2461-4.1488 8.8285-5.1985 10.385-4.2168 1.1392 0.7186 5.0909 7.0915 8.7812 14.162 3.6904 7.0706 7.3096 12.865 8.043 12.877 0.73333 0.0113 4.285-1.4764 7.8926-3.3066 8.2908-4.2062 9.6086-4.1697 11.912 0.3379 9.3201 18.238 21.62 64.269 17.195 64.354-3.4359 0.0658-53.847 9.0497-54.512 9.7148-0.44966 0.44963-0.46355 1.7434-0.0293 2.875 0.43424 1.1316 1.1468 2.0566 1.582 2.0566 0.43522 0 13.803-2.1545 29.707-4.7891 18.407-3.0491 29.458-5.4744 30.402-6.6719 1.7778-2.254 0.67042-9.1939-4.9414-30.992-3.1635-12.288-8.1441-26.024-15.428-42.547-0.4868-1.1043 5.8468-4.7986 18.742-10.932 13.575-6.4564 19.477-9.9347 19.477-11.482 0-3.7315-5.6659-1.7582-33.16 11.559-29.746 14.407-25.317 14.917-36.051-4.1445-3.5101-6.2333-7.3497-11.523-8.5312-11.754-1.1815-0.23125-5.7408 2.0188-10.131 5-4.3901 2.9813-8.7638 5.4056-9.7207 5.3867-0.95691-0.0189-3.8062-3.0804-6.332-6.8027-10.76-15.856-34.143-39.53-38.504-39.195zm-417.39 89.713 4.6953 0.76172c8.262 1.3407 8.4925 2.166 4.4336 15.896-3.2046 10.841-4.0258 12.361-6.8106 12.605-4.6015 0.40436-9.168-1.8348-9.168-4.498 0-1.2691 1.5421-7.3615 3.4258-13.537zm-31.516 74.986c-0.94308 0-2.0783 0.94938-2.5234 2.1094-1.0547 2.7485-1.0547 43.699 0 46.447 1.0562 2.7525 0.65053 2.7711 43.193-1.9394 23.187-2.5674 36.942-4.6402 37.594-5.666 1.2135-1.9095 1.4362-31.776 0.25977-34.842-1.043-2.718-4.0039-2.718-5.0469 0-0.44514 1.16-0.81054 8.6593-0.81054 16.666s-0.23135 14.559-0.51563 14.559-14.212 1.4987-30.949 3.332c-16.738 1.8333-32.106 3.334-34.15 3.334h-3.7168v-19.891c0-20.707-0.47097-24.109-3.334-24.109zm528.9 55.342c-1.9063-0.0575-2.9105 0.15388-3.3535 0.60351-2.5126 2.5502 2.027 4.8458 13.129 6.6367 9.2956 1.4996 9.9941 1.8414 9.9941 4.8965 0 5.9535-5.6808 26.071-7.5664 26.795-1.0165 0.39007-6.4028-0.90812-11.971-2.8848-5.5679-1.9767-10.542-3.0964-11.053-2.4902-0.51039 0.60623-2.6155 5.6016-4.6777 11.102-6.0344 16.094-20.056 42.315-30.094 56.273-5.1178 7.1171-9.3047 13.867-9.3047 15 0 1.1329 1.118 2.0605 2.4844 2.0605 5.4518 0 33.542-46.397 42.207-69.711 1.3034-3.5073 2.8576-6.6788 3.4531-7.0469 0.59556-0.36808 5.5901 1.0821 11.098 3.2207 7.7568 3.012 10.466 3.5477 12.02 2.3789 1.1031-0.82988 4.0022-9.3085 6.4434-18.842 2.6903-10.506 5.0444-17.211 5.9785-17.02 0.84756 0.17344 4.8667 0.70607 8.9297 1.1836 6.3466 0.74592 7.3867 0.55665 7.3867-1.3477 0-3.0333-2.889-3.92-26.457-8.123-9.7843-1.7449-15.469-2.5898-18.646-2.6855zm-465.46 13.027c-1.4919 0.065-3.821 0.557-7.6406 1.5039-19.518 4.8387-19.135 4.6772-19.135 8.0078 0 3.6681 6.3812 25.124 10.441 35.105l2.8418 6.9844-2.9746 1.9473c-1.6362 1.0702-5.183 2.8676-7.8828 3.9941-2.6999 1.1265-5.2697 2.629-5.709 3.3398-0.43931 0.71083 2.8452 8.561 7.2988 17.445 7.587 15.135 10.651 18.526 11.727 12.98 0.22424-1.1558-2.357-7.6073-5.7363-14.336-4.2758-8.5136-5.7419-12.72-4.8203-13.83 0.72839-0.87767 4.3613-2.6864 8.0742-4.0215 3.7129-1.3352 7.0423-2.9003 7.3984-3.4766 0.35616-0.57629-1.1457-5.3968-3.3379-10.713-4.3593-10.571-10.652-29.763-10.652-32.484 0-1.0497 4.1378-2.6584 10.688-4.1543 11.184-2.5544 13.914-4.1966 12.035-7.2363-0.46978-0.76011-1.1233-1.1216-2.6152-1.0566zm471.13 49.645c-0.21284-0.0151-0.42104-0.0144-0.625 0.002-3.5353 0.28392-5.6225 5.1138-2.3516 8.3848 1.9399 1.9399 1.9402 1.9389 5.1543 0.21875 3.3875-1.8129 3.2949-6.1427-0.17188-7.998-0.69163-0.37014-1.3673-0.56201-2.0059-0.60742zm-8.373 20.783c-0.0928-0.0103-0.18817-0.009-0.2871 0.002-1.7412 0.19979-4.4601 3.7767-9.0547 11.535-3.7999 6.4167-10.687 16.767-15.305 23-8.5367 11.523-29.628 34.666-31.592 34.666-0.59308 0-6.634-6.3-13.424-14-6.7899-7.7-13.104-14-14.031-14-3.7286 0-3.1399 3.0506 1.6016 8.2988l4.998 5.5332-5.2207 4.5352c-9.2472 8.034-28.83 20.476-43.889 27.885-8.0667 3.9685-15.191 7.7399-15.832 8.3809-0.66511 0.66506 2.3694 9.6383 7.0684 20.9 9.6593 23.15 10.397 21.039-9.5703 27.369-10.328 3.2742-13 4.6325-13 6.6094 0 3.439 2.9541 3.1884 17.188-1.4629 14.549-4.7544 20.146-7.5104 20.146-9.9161 0-0.98919-3.3006-9.7495-7.334-19.467-4.0333-9.7173-7.332-18.487-7.332-19.488 0-1.0013 6.1494-4.8993 13.666-8.6641 14.913-7.4689 28.137-15.656 39.898-24.697 4.161-3.1988 8.0884-5.8164 8.7266-5.8164 0.63819 0 3.834 3.2741 7.1016 7.2754 9.201 11.267 9.1738 11.272 24.77-5.0977 19.153-20.104 44.196-56.619 42.271-61.635-0.41263-1.0753-0.91515-1.6741-1.5645-1.7461zm-423.19 17.307c-0.80003 0.0751-1.4075 0.69271-1.8477 1.8398-1.6162 4.2116 25.88 34.806 42.496 47.285 4.2167 3.1668 7.668 6.4766 7.668 7.3535 0 2.408-19.86 30.084-21.588 30.084-4.9666 0-42.66-35.379-54.336-51-5.7221-7.6553-8.8318-9.3929-10.24-5.7227-0.65877 1.7167 1.9021 5.4462 14.814 21.568l2.6523 3.3106-14.318 13.371c-7.8751 7.3544-14.318 14.22-14.318 15.256 0 4.1351 4.605 1.3146 17.609-10.783 7.4887-6.9667 14.265-12.666 15.059-12.666 0.79354 0 4.0639 2.6713 7.2676 5.9356l5.8262 5.9336-4.8809 5.4023c-8.8394 9.7841-5.3578 13.036 4.0606 3.793l5.709-5.6035 4.3418 4.0781c7.009 6.5852 19.076 15.127 21.371 15.127 1.1668 0 3.4611-1.9487 5.0977-4.332s4.1814-5.6836 5.6562-7.334c2.5849-2.8925 2.8054-2.9188 6.1152-0.71484 1.8885 1.2575 7.9336 4.8746 13.434 8.0371 5.5 3.1625 11.153 5.5838 12.562 5.3808 4.6432-0.66881 3.7062-3.5129-2.1406-6.4922-11.631-5.927-22.42-13.476-22.385-15.664 0.0195-1.2176 2.6793-5.7153 5.9121-9.9961s5.5982-8.4814 5.2559-9.334c-0.34234-0.85253-4.0102-3.9495-8.1504-6.8828-9.6056-6.8055-32.871-29.697-40.316-39.668-3.9299-5.2627-6.6267-7.7278-8.3867-7.5625zm97.465 76.691c-0.19836-0.008-0.34972 0.006-0.44726 0.043-0.78038 0.29945-4.0478 6.6823-7.2598 14.186-3.212 7.5032-7.5726 17.201-9.6914 21.549-2.1188 4.3483-3.5877 8.5969-3.2637 9.4414 1.4831 3.8649 40.524 15.929 64.766 20.014 11.338 1.9105 35.883 2.48 38.385 0.89063 0.99586-0.63263 1.9227-5.7197 2.3633-12.979 0.39857-6.5665 1.0205-16.537 1.3828-22.156 0.85929-13.325-0.1603-14.448-13.145-14.455-17.791-0.01-44.754-5.7962-64.178-13.773-3.821-1.5692-7.5235-2.7019-8.9121-2.7598zm122.82 5.2051c-3.2987 0-2.0508 19.872 3.4941 55.666 0.60419 3.9 1.3756 5 3.5078 5 2.5704 0 2.6832-0.53732 1.8789-9-3.2866-34.583-6.2236-51.666-8.8809-51.666zm-118.9 3.2012c2.5092-0.0769 6.4219 1.3675 13.6 3.8809 14.627 5.1218 36.198 9.5729 51.16 10.557l11.826 0.77735-0.96094 17.459c-0.5283 9.6024-1.2362 17.909-1.5723 18.459-0.62169 1.0174-23.164 1.0534-30.453 0.0488-18.464-2.5447-56.33-13.431-59.342-17.061-1.0372-1.2498-0.52999-3.641 1.875-8.8496 1.8129-3.9262 5.0498-11.339 7.1934-16.473 2.5418-6.0872 3.4477-8.6999 6.6738-8.7988z" stroke-width="1.3333" fill="#2aa198"/>
</svg>
